<svg width="25" height="31" viewBox="0 0 25 31" fill="none" xmlns="http://www.w3.org/2000/svg">
<path d="M23.4175 7.91667C22.7267 7.91667 22.1667 8.47668 22.1667 9.1675V23.1642C22.1667 26.1111 19.7777 28.5 16.8308 28.5H7.8375C4.8906 28.5 2.50167 26.1111 2.50167 23.1642V9.1675C2.50167 8.47668 1.94165 7.91667 1.25083 7.91667C0.560017 7.91667 2.05879e-08 8.47668 0 9.1675V23.1642C0.0434152 27.5055 3.57514 31.0019 7.91667 31.0017H16.91C21.2206 30.9588 24.7046 27.4748 24.7475 23.1642V9.1675C24.7482 8.82158 24.6056 8.49081 24.3536 8.25382C24.1016 8.01683 23.7627 7.89477 23.4175 7.91667Z" fill="black"/>
<path fill-rule="evenodd" clip-rule="evenodd" d="M23.4175 5.66833H1.25083C0.560017 5.66833 0 5.10832 0 4.4175C0 3.72668 0.560017 3.16667 1.25083 3.16667H5.44667L7.315 1.14C8.0292 0.4139 9.00403 0.00344511 10.0225 2.90527e-10H14.6458C15.6495 -1.24237e-05 16.612 0.398667 17.3217 1.10833L19.2217 3.16667H23.4175C24.1083 3.16667 24.6683 3.72668 24.6683 4.4175C24.6683 5.10832 24.1083 5.66833 23.4175 5.66833ZM14.6458 2.50167H10.0225C9.70597 2.50178 9.40094 2.6204 9.1675 2.83417L8.86667 3.15083H15.8017L15.5008 2.83417C15.2691 2.61767 14.963 2.49861 14.6458 2.50167Z" fill="black"/>
<path d="M6.39667 10.7508V15.5008C6.39667 16.1567 6.92833 16.6883 7.58417 16.6883C8.24 16.6883 8.77167 16.1567 8.77167 15.5008V10.7508C8.77167 10.095 8.24 9.56333 7.58417 9.56333C6.92833 9.56333 6.39667 10.095 6.39667 10.7508Z" fill="black"/>
<path d="M11.1467 10.7508V23.4175C11.1467 24.0733 11.6783 24.605 12.3342 24.605C12.99 24.605 13.5217 24.0733 13.5217 23.4175V10.7508C13.5217 10.095 12.99 9.56333 12.3342 9.56333C11.6783 9.56333 11.1467 10.095 11.1467 10.7508Z" fill="black"/>
<path d="M15.8967 10.7508V15.5008C15.8967 16.1567 16.4283 16.6883 17.0842 16.6883C17.74 16.6883 18.2717 16.1567 18.2717 15.5008V10.7508C18.2717 10.095 17.74 9.56333 17.0842 9.56333C16.4283 9.56333 15.8967 10.095 15.8967 10.7508Z" fill="black"/>
<path d="M23.4175 7.91667C22.7267 7.91667 22.1667 8.47668 22.1667 9.1675V23.1642C22.1667 26.1111 19.7777 28.5 16.8308 28.5H7.8375C4.8906 28.5 2.50167 26.1111 2.50167 23.1642V9.1675C2.50167 8.47668 1.94165 7.91667 1.25083 7.91667C0.560017 7.91667 2.05879e-08 8.47668 0 9.1675V23.1642C0.0434152 27.5055 3.57514 31.0019 7.91667 31.0017H16.91C21.2206 30.9588 24.7046 27.4748 24.7475 23.1642V9.1675C24.7482 8.82158 24.6056 8.49081 24.3536 8.25382C24.1016 8.01683 23.7627 7.89477 23.4175 7.91667Z" stroke="#010101"/>
<path fill-rule="evenodd" clip-rule="evenodd" d="M23.4175 5.66833H1.25083C0.560017 5.66833 0 5.10832 0 4.4175C0 3.72668 0.560017 3.16667 1.25083 3.16667H5.44667L7.315 1.14C8.0292 0.4139 9.00403 0.00344511 10.0225 2.90527e-10H14.6458C15.6495 -1.24237e-05 16.612 0.398667 17.3217 1.10833L19.2217 3.16667H23.4175C24.1083 3.16667 24.6683 3.72668 24.6683 4.4175C24.6683 5.10832 24.1083 5.66833 23.4175 5.66833ZM14.6458 2.50167H10.0225C9.70597 2.50178 9.40094 2.6204 9.1675 2.83417L8.86667 3.15083H15.8017L15.5008 2.83417C15.2691 2.61767 14.963 2.49861 14.6458 2.50167Z" stroke="#010101"/>
<path d="M6.39667 10.7508V15.5008C6.39667 16.1567 6.92833 16.6883 7.58417 16.6883C8.24 16.6883 8.77167 16.1567 8.77167 15.5008V10.7508C8.77167 10.095 8.24 9.56333 7.58417 9.56333C6.92833 9.56333 6.39667 10.095 6.39667 10.7508Z" stroke="#010101"/>
<path d="M11.1467 10.7508V23.4175C11.1467 24.0733 11.6783 24.605 12.3342 24.605C12.99 24.605 13.5217 24.0733 13.5217 23.4175V10.7508C13.5217 10.095 12.99 9.56333 12.3342 9.56333C11.6783 9.56333 11.1467 10.095 11.1467 10.7508Z" stroke="#010101"/>
<path d="M15.8967 10.7508V15.5008C15.8967 16.1567 16.4283 16.6883 17.0842 16.6883C17.74 16.6883 18.2717 16.1567 18.2717 15.5008V10.7508C18.2717 10.095 17.74 9.56333 17.0842 9.56333C16.4283 9.56333 15.8967 10.095 15.8967 10.7508Z" stroke="#010101"/>
</svg>
