<svg width="100" height="100" viewBox="0 0 100 100" fill="none" xmlns="http://www.w3.org/2000/svg">
<circle cx="50" cy="50" r="49.5" fill="black" stroke="#010101"/>
<path fill-rule="evenodd" clip-rule="evenodd" d="M71.0074 41.375V41.6458C70.9692 42.6877 70.5801 43.6862 69.9032 44.4792L57.2782 58.7917L51.4657 65.3958C50.5986 66.3732 49.3556 66.9341 48.0491 66.9375C47.7582 66.9682 47.4649 66.9682 47.1741 66.9375H47.0491C46.8107 66.903 46.579 66.8328 46.3616 66.7292H46.1324C45.9367 66.6485 45.7485 66.551 45.5699 66.4375L45.3616 66.2917L44.9657 66L42.0907 68.875C41.5392 69.4255 40.7865 69.7266 40.0074 69.7083C39.4473 69.6884 38.9049 69.5076 38.4449 69.1875C37.9236 69.7171 37.243 70.0611 36.5074 70.1667L31.2782 70.7708H30.9657C30.425 70.7797 29.9021 70.578 29.5074 70.2083L28.5491 69.25C27.6721 68.0979 27.8656 66.4581 28.9866 65.5417L31.9032 62.625C31.0973 61.4833 31.2292 59.9273 32.2157 58.9375L35.0907 56.0625C34.9934 55.9355 34.903 55.8034 34.8199 55.6667C34.7508 55.5885 34.6881 55.5049 34.6324 55.4167L34.2157 54.5833C34.0491 54.3958 34.0491 54.2083 34.0491 54V53.7083C34.0277 53.4866 34.0277 53.2634 34.0491 53.0417V52.0417C34.0619 52.0081 34.0619 51.971 34.0491 51.9375C34.2619 51.0125 34.7657 50.18 35.4866 49.5625L46.5491 39.8125L56.3824 31.1667C57.2434 30.4175 58.3453 30.0033 59.4866 30C60.723 30.002 61.9077 30.4969 62.7782 31.375L69.7366 38.2083C70.3748 38.8401 70.8162 39.6434 71.0074 40.5208C70.9977 40.5619 70.9977 40.6047 71.0074 40.6458C71.0278 40.8885 71.0278 41.1324 71.0074 41.375ZM47.9866 63.9375C48.4043 63.9413 48.8018 63.7579 49.0699 63.4375L54.7366 56.9167L67.4449 42.5C67.9952 41.9146 67.9952 41.0021 67.4449 40.4167L60.5699 33.5417C60.2772 33.2486 59.88 33.0837 59.4657 33.0833C59.0977 33.0814 58.7418 33.2149 58.4657 33.4583L48.6741 42.1458L37.3824 52.1042C37.258 52.2344 37.1528 52.3817 37.0699 52.5417V52.6458C37.0407 52.7691 37.0407 52.8975 37.0699 53.0208C37.0384 53.186 37.0384 53.3557 37.0699 53.5208C37.1748 53.6739 37.3186 53.7962 37.4866 53.875C37.4721 53.9225 37.4721 53.9733 37.4866 54.0208L46.9657 63.6042C47.1241 63.7478 47.3078 63.8608 47.5074 63.9375C47.6316 63.9574 47.7582 63.9574 47.8824 63.9375H47.9866ZM31.3407 67.6042L33.1324 65.8333L34.5491 67.2292L31.3407 67.6042ZM34.6116 60.9792L40.0074 66.4583L42.7157 63.6875L37.2991 58.2708L34.6116 60.9792Z" fill="white"/>
<path d="M58.6324 40.1458L49.2574 49.5208C48.6481 50.1309 48.6481 51.1191 49.2574 51.7292C49.5488 52.0242 49.9468 52.1895 50.3616 52.1875C50.7777 52.1969 51.1786 52.0305 51.4657 51.7292L60.8407 42.3542C61.1385 42.064 61.3065 41.6658 61.3065 41.25C61.3065 40.8342 61.1385 40.436 60.8407 40.1458C60.2307 39.5366 59.2424 39.5366 58.6324 40.1458Z" fill="white"/>
</svg>
