<svg width="100" height="100" viewBox="0 0 100 100" fill="none" xmlns="http://www.w3.org/2000/svg">
<path d="M99.5 50C99.5 77.3381 77.3381 99.5 50 99.5C22.6619 99.5 0.5 77.3381 0.5 50C0.5 22.6619 22.6619 0.5 50 0.5C77.3381 0.5 99.5 22.6619 99.5 50Z" fill="#F6F6F6" stroke="white"/>
<path fill-rule="evenodd" clip-rule="evenodd" d="M58.2793 35.3963H58.4585C63.406 35.3963 67.4168 39.4071 67.4168 44.3547V60.4797C67.4168 65.4272 63.406 69.438 58.4585 69.438H40.5418C38.1659 69.438 35.8873 68.4942 34.2073 66.8142C32.5273 65.1341 31.5835 62.8556 31.5835 60.4797V44.3547C31.5835 39.4071 35.5943 35.3963 40.5418 35.3963H40.721V32.1355C40.721 31.3934 41.3226 30.7917 42.0647 30.7917C42.8069 30.7917 43.4085 31.3934 43.4085 32.1355V35.3963H55.5918V32.1355C55.5918 31.3934 56.1934 30.7917 56.9356 30.7917C57.6777 30.7917 58.2793 31.3934 58.2793 32.1355V35.3963ZM41.4377 46.3076H57.5627C58.3048 46.3076 58.9064 45.706 58.9064 44.9638C58.9064 44.2217 58.3048 43.6201 57.5627 43.6201H41.4377C40.6955 43.6201 40.0939 44.2217 40.0939 44.9638C40.0939 45.706 40.6955 46.3076 41.4377 46.3076Z" fill="black"/>
</svg>
