<svg width="100" height="100" viewBox="0 0 100 100" fill="none" xmlns="http://www.w3.org/2000/svg">
<circle cx="50" cy="50" r="49.5" fill="white" stroke="#010101"/>
<path fill-rule="evenodd" clip-rule="evenodd" d="M33.462 40.9781C36.4333 33.8434 43.395 29.1879 51.1236 29.1673C59.4532 29.1234 66.8597 34.4588 69.4562 42.3734C72.0526 50.2881 69.246 58.974 62.5092 63.8729C55.7724 68.7717 46.6443 68.7644 39.9153 63.8548L33.9153 69.8548C33.3053 70.464 32.317 70.464 31.707 69.8548C31.0977 69.2447 31.0977 68.2565 31.707 67.6464L37.5195 61.8339C32.0901 56.3336 30.4907 48.1128 33.462 40.9781ZM36.2477 54.5192C38.7425 60.531 44.6147 64.4465 51.1236 64.4381V64.3548C59.9576 64.3435 67.1289 57.2094 67.1861 48.3756C67.1945 41.8667 63.2791 35.9944 57.2672 33.4997C51.2554 31.005 44.3327 32.3797 39.7302 36.9821C35.1277 41.5846 33.753 48.5074 36.2477 54.5192Z" fill="#050505"/>
</svg>
