<svg width="103" height="103" viewBox="0 0 103 103" fill="none" xmlns="http://www.w3.org/2000/svg">
<path fill-rule="evenodd" clip-rule="evenodd" d="M14.3754 18.3353L18.3352 14.3755C36.768 -4.0573 66.6534 -4.0573 85.0861 14.3754L89.0459 18.3352C107.479 36.768 107.479 66.6534 89.0459 85.0861L85.0861 89.0459C66.6534 107.479 36.768 107.479 18.3352 89.0459L14.3754 85.0861C-4.05731 66.6534 -4.05731 36.768 14.3754 18.3353ZM57.014 51.7107L68.5045 40.2202C69.9689 38.7557 69.9689 36.3814 68.5045 34.9169C67.04 33.4524 64.6656 33.4524 63.2012 34.9169L51.7107 46.4074L40.2202 34.9169C38.7557 33.4524 36.3814 33.4524 34.9169 34.9169C33.4524 36.3814 33.4524 38.7557 34.9169 40.2202L46.4074 51.7107L34.9169 63.2012C33.4524 64.6656 33.4524 67.04 34.9169 68.5045C36.3814 69.9689 38.7557 69.9689 40.2202 68.5045L51.7107 57.014L63.2012 68.5045C64.6656 69.9689 67.04 69.9689 68.5045 68.5045C69.9689 67.04 69.9689 64.6656 68.5045 63.2012L57.014 51.7107Z" fill="white"/>
<path d="M57.014 51.7107L68.5045 40.2202C69.9689 38.7557 69.9689 36.3814 68.5045 34.9169C67.04 33.4524 64.6656 33.4524 63.2012 34.9169L51.7107 46.4074L40.2202 34.9169C38.7557 33.4524 36.3814 33.4524 34.9169 34.9169C33.4524 36.3814 33.4524 38.7557 34.9169 40.2202L46.4074 51.7107L34.9169 63.2012C33.4524 64.6656 33.4524 67.04 34.9169 68.5045C36.3814 69.9689 38.7557 69.9689 40.2202 68.5045L51.7107 57.014L63.2012 68.5045C64.6656 69.9689 67.04 69.9689 68.5045 68.5045C69.9689 67.04 69.9689 64.6656 68.5045 63.2012L57.014 51.7107Z" fill="black"/>
</svg>
