<svg width="101" height="101" viewBox="0 0 101 101" fill="none" xmlns="http://www.w3.org/2000/svg">
<path fill-rule="evenodd" clip-rule="evenodd" d="M47.9107 0.710693L53.5107 0.710693C79.5785 0.710693 100.711 21.8429 100.711 47.9107V53.5107C100.711 79.5785 79.5785 100.711 53.5107 100.711H47.9107C21.8429 100.711 0.710693 79.5785 0.710693 53.5107L0.710693 47.9107C0.710693 21.8429 21.8429 0.710693 47.9107 0.710693ZM54.4607 54.4607H70.7107C72.7818 54.4607 74.4607 52.7818 74.4607 50.7107C74.4607 48.6396 72.7818 46.9607 70.7107 46.9607H54.4607L54.4607 30.7107C54.4607 28.6396 52.7818 26.9607 50.7107 26.9607C48.6396 26.9607 46.9607 28.6396 46.9607 30.7107L46.9607 46.9607L30.7107 46.9607C28.6396 46.9607 26.9607 48.6396 26.9607 50.7107C26.9607 52.7818 28.6396 54.4607 30.7107 54.4607L46.9607 54.4607V70.7107C46.9607 72.7818 48.6396 74.4607 50.7107 74.4607C52.7818 74.4607 54.4607 72.7818 54.4607 70.7107V54.4607Z" fill="white"/>
<path d="M54.4607 54.4607H70.7107C72.7818 54.4607 74.4607 52.7818 74.4607 50.7107C74.4607 48.6396 72.7818 46.9607 70.7107 46.9607H54.4607L54.4607 30.7107C54.4607 28.6396 52.7818 26.9607 50.7107 26.9607C48.6396 26.9607 46.9607 28.6396 46.9607 30.7107L46.9607 46.9607L30.7107 46.9607C28.6396 46.9607 26.9607 48.6396 26.9607 50.7107C26.9607 52.7818 28.6396 54.4607 30.7107 54.4607L46.9607 54.4607V70.7107C46.9607 72.7818 48.6396 74.4607 50.7107 74.4607C52.7818 74.4607 54.4607 72.7818 54.4607 70.7107V54.4607Z" fill="black"/>
</svg>
