<svg width="37" height="37" viewBox="0 0 37 37" fill="none" xmlns="http://www.w3.org/2000/svg">
<path d="M22.5681 4.00663L23.8124 7.91959C24.3747 9.73069 25.9947 10.9619 27.8282 10.9717H31.7497C33.5889 10.9596 35.2241 12.184 35.7928 13.9991C36.3614 15.8142 35.7327 17.8024 34.2384 18.915L31.0144 21.3411C29.5304 22.4591 28.9067 24.4402 29.4685 26.2518L30.7128 30.1648C31.3282 31.9826 30.7274 34.0043 29.2322 35.1467C27.737 36.289 25.6983 36.284 24.2084 35.1342L21.041 32.6886C19.5562 31.5724 17.5485 31.5724 16.0637 32.6886L12.8963 35.1342C11.4147 36.2596 9.40224 36.2626 7.91754 35.1416C6.43285 34.0207 5.81617 32.0327 6.39193 30.2235L7.63625 26.3105C8.19801 24.4989 7.57433 22.5178 6.09028 21.3998L2.79094 18.9346C1.26626 17.8197 0.626903 15.7989 1.21802 13.9632C1.80914 12.1274 3.49074 10.9114 5.35499 10.9717H9.2765C11.1 10.9675 12.7169 9.75435 13.2923 7.95872L14.5366 4.04576C15.0944 2.23838 16.7099 1.00896 18.5387 1.00005C20.3675 0.991139 21.994 2.20476 22.5681 4.00663Z" fill="#FF9D00" stroke="#FF9D00"/>
</svg>
