<svg width="42" height="42" viewBox="0 0 42 42" fill="none" xmlns="http://www.w3.org/2000/svg">
<path d="M30.7674 21C30.7674 26.3944 26.3944 30.7674 21 30.7674C15.6056 30.7674 11.2326 26.3944 11.2326 21C11.2326 15.6056 15.6056 11.2326 21 11.2326C26.3944 11.2326 30.7674 15.6056 30.7674 21Z" fill="#FF9D00"/>
<path d="M21 8.7907C21.8048 8.78018 22.4546 8.13034 22.4651 7.32558V1.46512C22.4651 0.655955 21.8092 0 21 0C20.1908 0 19.5349 0.655955 19.5349 1.46512V7.32558C19.5454 8.13034 20.1952 8.78018 21 8.7907Z" fill="#FF9D00"/>
<path d="M21 33.2093C20.1952 33.2198 19.5454 33.8697 19.5349 34.6744V40.5349C19.5349 41.344 20.1908 42 21 42C21.8092 42 22.4651 41.344 22.4651 40.5349V34.6744C22.4546 33.8697 21.8048 33.2198 21 33.2093Z" fill="#FF9D00"/>
<path d="M10.2949 12.3656C10.8669 12.9369 11.7936 12.9369 12.3656 12.3656C12.9369 11.7936 12.9369 10.8669 12.3656 10.2949L8.22419 6.15349C7.85894 5.76151 7.30887 5.60016 6.78976 5.73274C6.27065 5.86531 5.86531 6.27065 5.73274 6.78976C5.60016 7.30887 5.76152 7.85894 6.15349 8.22419L10.2949 12.3656Z" fill="#FF9D00"/>
<path d="M31.7051 29.6344C31.1278 29.0965 30.2283 29.1124 29.6703 29.6703C29.1124 30.2283 29.0965 31.1278 29.6344 31.7051L33.7758 35.8465C34.0491 36.1232 34.4223 36.2781 34.8112 36.2763C35.2005 36.2804 35.5745 36.1251 35.8465 35.8465C36.4178 35.2745 36.4178 34.3478 35.8465 33.7758L31.7051 29.6344Z" fill="#FF9D00"/>
<path d="M8.7907 21C8.78018 20.1952 8.13034 19.5454 7.32558 19.5349H1.46512C0.655955 19.5349 0 20.1908 0 21C0 21.8092 0.655955 22.4651 1.46512 22.4651H7.32558C8.13034 22.4546 8.78018 21.8048 8.7907 21Z" fill="#FF9D00"/>
<path d="M40.5349 19.5349H34.6744C33.8653 19.5349 33.2093 20.1908 33.2093 21C33.2093 21.8092 33.8653 22.4651 34.6744 22.4651H40.5349C41.344 22.4651 42 21.8092 42 21C42 20.1908 41.344 19.5349 40.5349 19.5349Z" fill="#FF9D00"/>
<path d="M10.2949 29.6344L6.15348 33.7758C5.58218 34.3478 5.58218 35.2745 6.15348 35.8465C6.42546 36.1251 6.79952 36.2804 7.18883 36.2763C7.57771 36.2781 7.95092 36.1232 8.22418 35.8465L12.3656 31.7051C12.9035 31.1278 12.8876 30.2283 12.3297 29.6703C11.7717 29.1124 10.8722 29.0965 10.2949 29.6344Z" fill="#FF9D00"/>
<path d="M30.7674 12.7953C31.1563 12.7972 31.5295 12.6423 31.8028 12.3656L35.8465 8.22419C36.2385 7.85894 36.3998 7.30887 36.2673 6.78976C36.1347 6.27065 35.7293 5.86531 35.2102 5.73274C34.6911 5.60016 34.1411 5.76151 33.7758 6.15349L29.6344 10.2949C29.0631 10.8669 29.0631 11.7936 29.6344 12.3656C29.9309 12.6679 30.3451 12.8249 30.7674 12.7953Z" fill="#FF9D00"/>
</svg>
