<svg width="100" height="100" viewBox="0 0 100 100" fill="none" xmlns="http://www.w3.org/2000/svg">
<circle cx="50" cy="50" r="49.5" fill="white" stroke="#010101"/>
<path fill-rule="evenodd" clip-rule="evenodd" d="M71.4376 37.25V37.5208C71.3994 38.5627 71.0103 39.5612 70.3334 40.3542L57.7084 54.6667L51.8959 61.2708C51.0288 62.2482 49.7858 62.8091 48.4792 62.8125C48.1884 62.8432 47.8951 62.8432 47.6042 62.8125H47.4792C47.2409 62.778 47.0091 62.7078 46.7917 62.6042H46.5626C46.3669 62.5235 46.1787 62.426 46.0001 62.3125L45.7917 62.1667L45.3959 61.875L42.5209 64.75C41.9694 65.3005 41.2167 65.6016 40.4376 65.5833C39.8775 65.5634 39.3351 65.3826 38.8751 65.0625C38.3538 65.5921 37.6731 65.9361 36.9376 66.0417L31.7084 66.6458H31.3959C30.8552 66.6547 30.3323 66.453 29.9376 66.0833L28.9792 65.125C28.1023 63.9729 28.2958 62.3331 29.4167 61.4167L32.3334 58.5C31.5275 57.3583 31.6593 55.8023 32.6459 54.8125L35.5209 51.9375C35.4236 51.8105 35.3332 51.6784 35.2501 51.5417C35.181 51.4635 35.1183 51.3799 35.0626 51.2917L34.6459 50.4583C34.4792 50.2708 34.4792 50.0833 34.4792 49.875V49.5833C34.4579 49.3616 34.4579 49.1384 34.4792 48.9167V47.9167C34.4921 47.8831 34.4921 47.846 34.4792 47.8125C34.6921 46.8875 35.1959 46.055 35.9167 45.4375L46.9792 35.6875L56.8126 27.0417C57.6735 26.2925 58.7755 25.8783 59.9167 25.875C61.1532 25.877 62.3379 26.3719 63.2084 27.25L70.1667 34.0833C70.805 34.7151 71.2464 35.5184 71.4376 36.3958C71.4278 36.4369 71.4278 36.4797 71.4376 36.5208C71.458 36.7635 71.458 37.0074 71.4376 37.25ZM48.4167 59.8125C48.8345 59.8163 49.232 59.6329 49.5001 59.3125L55.1667 52.7917L67.8751 38.375C68.4254 37.7896 68.4254 36.8771 67.8751 36.2917L61.0001 29.4167C60.7073 29.1236 60.3102 28.9587 59.8959 28.9583C59.5279 28.9564 59.1719 29.0899 58.8959 29.3333L49.1042 38.0208L37.8126 47.9792C37.6882 48.1094 37.5829 48.2567 37.5001 48.4167V48.5208C37.4708 48.6441 37.4708 48.7725 37.5001 48.8958C37.4685 49.061 37.4685 49.2307 37.5001 49.3958C37.6049 49.5489 37.7488 49.6712 37.9167 49.75C37.9022 49.7975 37.9022 49.8483 37.9167 49.8958L47.3959 59.4792C47.5543 59.6228 47.738 59.7358 47.9376 59.8125C48.0618 59.8324 48.1884 59.8324 48.3126 59.8125H48.4167ZM31.7709 63.4792L33.5626 61.7083L34.9792 63.1042L31.7709 63.4792ZM35.0417 56.8542L40.4376 62.3333L43.1459 59.5625L37.7292 54.1458L35.0417 56.8542Z" fill="black"/>
<path d="M59.0626 36.0208L49.6876 45.3958C49.0783 46.0059 49.0783 46.9941 49.6876 47.6042C49.979 47.8992 50.377 48.0645 50.7917 48.0625C51.2079 48.0719 51.6087 47.9055 51.8959 47.6042L61.2709 38.2292C61.5687 37.939 61.7367 37.5408 61.7367 37.125C61.7367 36.7092 61.5687 36.311 61.2709 36.0208C60.6609 35.4116 59.6726 35.4116 59.0626 36.0208Z" fill="black"/>
</svg>
