<svg width="100" height="100" viewBox="0 0 100 100" fill="none" xmlns="http://www.w3.org/2000/svg">
<path d="M99.5 50C99.5 77.3381 77.3381 99.5 50 99.5C22.6619 99.5 0.5 77.3381 0.5 50C0.5 22.6619 22.6619 0.5 50 0.5C77.3381 0.5 99.5 22.6619 99.5 50Z" fill="black" stroke="#010101"/>
<path fill-rule="evenodd" clip-rule="evenodd" d="M58.2792 35.3963H58.4584C63.4059 35.3963 67.4167 39.4071 67.4167 44.3546V60.4796C67.4167 65.4272 63.4059 69.4379 58.4584 69.4379H40.5417C38.1658 69.4379 35.8872 68.4941 34.2072 66.8141C32.5272 65.1341 31.5834 62.8555 31.5834 60.4796V44.3546C31.5834 39.4071 35.5942 35.3963 40.5417 35.3963H40.7209V32.1354C40.7209 31.3933 41.3225 30.7917 42.0646 30.7917C42.8068 30.7917 43.4084 31.3933 43.4084 32.1354V35.3963H55.5917V32.1354C55.5917 31.3933 56.1933 30.7917 56.9355 30.7917C57.6776 30.7917 58.2792 31.3933 58.2792 32.1354V35.3963ZM41.4375 46.3075H57.5625C58.3047 46.3075 58.9063 45.7059 58.9063 44.9638C58.9063 44.2216 58.3047 43.62 57.5625 43.62H41.4375C40.6954 43.62 40.0938 44.2216 40.0938 44.9638C40.0938 45.7059 40.6954 46.3075 41.4375 46.3075Z" fill="white"/>
</svg>
