<svg width="100" height="100" viewBox="0 0 100 100" fill="none" xmlns="http://www.w3.org/2000/svg">
<circle cx="50" cy="50" r="49.5" fill="black" stroke="#010101"/>
<path fill-rule="evenodd" clip-rule="evenodd" d="M33.462 40.978C36.4333 33.8434 43.395 29.1878 51.1236 29.1672C59.4532 29.1233 66.8597 34.4587 69.4562 42.3734C72.0526 50.2881 69.246 58.9739 62.5092 63.8728C55.7724 68.7716 46.6443 68.7643 39.9153 63.8547L33.9153 69.8547C33.3053 70.464 32.317 70.464 31.707 69.8547C31.0977 69.2447 31.0977 68.2564 31.707 67.6464L37.5195 61.8339C32.0901 56.3335 30.4907 48.1127 33.462 40.978ZM36.2477 54.5192C38.7425 60.531 44.6147 64.4465 51.1236 64.438V64.3547C59.9576 64.3434 67.1289 57.2093 67.1861 48.3755C67.1945 41.8667 63.2791 35.9944 57.2672 33.4996C51.2554 31.0049 44.3327 32.3796 39.7302 36.9821C35.1277 41.5846 33.753 48.5073 36.2477 54.5192Z" fill="white"/>
</svg>
