<svg width="100" height="100" viewBox="0 0 100 100" fill="none" xmlns="http://www.w3.org/2000/svg">
<circle cx="50" cy="50" r="49.5" fill="black" stroke="#010101"/>
<path fill-rule="evenodd" clip-rule="evenodd" d="M71.4375 37.25V37.5208C71.3993 38.5627 71.0102 39.5612 70.3333 40.3542L57.7083 54.6667L51.8958 61.2708C51.0287 62.2482 49.7857 62.8091 48.4791 62.8125C48.1883 62.8432 47.895 62.8432 47.6041 62.8125H47.4791C47.2408 62.778 47.009 62.7078 46.7916 62.6042H46.5625C46.3668 62.5235 46.1786 62.426 46 62.3125L45.7916 62.1667L45.3958 61.875L42.5208 64.75C41.9692 65.3005 41.2165 65.6016 40.4375 65.5833C39.8774 65.5634 39.3349 65.3826 38.875 65.0625C38.3537 65.5921 37.673 65.9361 36.9375 66.0417L31.7083 66.6458H31.3958C30.8551 66.6547 30.3321 66.453 29.9375 66.0833L28.9791 65.125C28.1022 63.9729 28.2957 62.3331 29.4166 61.4167L32.3333 58.5C31.5274 57.3583 31.6592 55.8023 32.6458 54.8125L35.5208 51.9375C35.4235 51.8105 35.3331 51.6784 35.25 51.5417C35.1809 51.4635 35.1182 51.3799 35.0625 51.2917L34.6458 50.4583C34.4791 50.2708 34.4791 50.0833 34.4791 49.875V49.5833C34.4578 49.3616 34.4578 49.1384 34.4791 48.9167V47.9167C34.4919 47.8831 34.4919 47.846 34.4791 47.8125C34.6919 46.8875 35.1958 46.055 35.9166 45.4375L46.9791 35.6875L56.8125 27.0417C57.6734 26.2925 58.7753 25.8783 59.9166 25.875C61.1531 25.877 62.3378 26.3719 63.2083 27.25L70.1666 34.0833C70.8048 34.7151 71.2463 35.5184 71.4375 36.3958C71.4277 36.4369 71.4277 36.4797 71.4375 36.5208C71.4578 36.7635 71.4578 37.0074 71.4375 37.25ZM48.4166 59.8125C48.8344 59.8163 49.2319 59.6329 49.5 59.3125L55.1666 52.7917L67.875 38.375C68.4253 37.7896 68.4253 36.8771 67.875 36.2917L61 29.4167C60.7072 29.1236 60.31 28.9587 59.8958 28.9583C59.5277 28.9564 59.1718 29.0899 58.8958 29.3333L49.1041 38.0208L37.8125 47.9792C37.688 48.1094 37.5828 48.2567 37.5 48.4167V48.5208C37.4707 48.6441 37.4707 48.7725 37.5 48.8958C37.4684 49.061 37.4684 49.2307 37.5 49.3958C37.6048 49.5489 37.7487 49.6712 37.9166 49.75C37.9021 49.7975 37.9021 49.8483 37.9166 49.8958L47.3958 59.4792C47.5542 59.6228 47.7378 59.7358 47.9375 59.8125C48.0617 59.8324 48.1882 59.8324 48.3125 59.8125H48.4166ZM31.7708 63.4792L33.5625 61.7083L34.9791 63.1042L31.7708 63.4792ZM35.0416 56.8542L40.4375 62.3333L43.1458 59.5625L37.7291 54.1458L35.0416 56.8542Z" fill="white"/>
<path d="M59.0625 36.0208L49.6875 45.3958C49.0782 46.0059 49.0782 46.9941 49.6875 47.6042C49.9789 47.8992 50.3769 48.0645 50.7916 48.0625C51.2078 48.0719 51.6086 47.9055 51.8958 47.6042L61.2708 38.2292C61.5686 37.939 61.7366 37.5408 61.7366 37.125C61.7366 36.7092 61.5686 36.311 61.2708 36.0208C60.6608 35.4116 59.6725 35.4116 59.0625 36.0208Z" fill="white"/>
</svg>
