<svg width="104" height="104" viewBox="0 0 104 104" fill="none" xmlns="http://www.w3.org/2000/svg">
<path fill-rule="evenodd" clip-rule="evenodd" d="M14.6649 18.6246L18.6247 14.6648C37.0574 -3.76799 66.9428 -3.76799 85.3756 14.6648L89.3353 18.6246C107.768 37.0573 107.768 66.9427 89.3353 85.3754L85.3756 89.3352C66.9428 107.768 37.0574 107.768 18.6247 89.3352L14.6649 85.3754C-3.76788 66.9427 -3.76788 37.0573 14.6649 18.6246ZM57.3034 52L68.7939 40.5095C70.2584 39.0451 70.2584 36.6707 68.7939 35.2062C67.3294 33.7418 64.9551 33.7417 63.4906 35.2062L52.0001 46.6967L40.5096 35.2062C39.0452 33.7417 36.6708 33.7417 35.2063 35.2062C33.7419 36.6707 33.7419 39.0451 35.2063 40.5095L46.6968 52L35.2063 63.4905C33.7419 64.9549 33.7419 67.3293 35.2063 68.7938C36.6708 70.2583 39.0452 70.2583 40.5096 68.7938L52.0001 57.3033L63.4906 68.7938C64.9551 70.2583 67.3294 70.2582 68.7939 68.7938C70.2584 67.3293 70.2584 64.9549 68.7939 63.4905L57.3034 52Z" fill="black"/>
</svg>
